<svg width="254" height="80" viewBox="0 0 254 80" fill="none" xmlns="http://www.w3.org/2000/svg">
<rect x="0.5" y="0.5" width="253" height="79" rx="19.5" fill="url(#paint0_linear_3955_3785)" stroke="#515054"/>
<rect x="21" y="23" width="63" height="34" rx="9" stroke="white" stroke-width="2"/>
<path d="M33.4453 47.1172C32.6953 47.1172 32.1094 46.5312 32.1094 45.7812C32.1094 45.0195 32.6953 44.4453 33.4453 44.4453C34.207 44.4453 34.7812 45.0195 34.7812 45.7812C34.7812 46.5312 34.207 47.1172 33.4453 47.1172ZM42 45.3477C44.0625 45.3477 45.5742 44.0117 45.5742 42.1953V41.1758L42.2695 41.3867C40.3711 41.5039 39.3867 42.1953 39.3867 43.4141C39.3867 44.5859 40.4062 45.3477 42 45.3477ZM41.5664 47.1172C39 47.1172 37.3008 45.6406 37.3008 43.4023C37.3008 41.2344 38.9648 39.957 42.0352 39.7695L45.5742 39.5586V38.5039C45.5742 36.9336 44.543 36.0664 42.6797 36.0664C41.2148 36.0664 40.125 36.8164 39.8789 38.0117H37.9219C37.9805 35.8789 40.0547 34.25 42.7031 34.25C45.6914 34.25 47.6133 35.8438 47.6133 38.3281V47H45.6797V44.8086H45.6328C44.918 46.2148 43.3359 47.1172 41.5664 47.1172ZM56.3906 34.25C59.6133 34.25 61.8047 36.8281 61.8047 40.6836C61.8047 44.5391 59.625 47.1172 56.4375 47.1172C54.6445 47.1172 53.2031 46.332 52.4062 44.9492H52.3594V51.2188H50.3203V34.3672H52.2539V36.418H52.3008C53.0391 35.1055 54.6445 34.25 56.3906 34.25ZM56.0156 45.3008C58.2422 45.3008 59.7188 43.4844 59.7188 40.6836C59.7188 37.8945 58.2422 36.0664 56.0156 36.0664C53.8359 36.0664 52.3477 37.9414 52.3477 40.6836C52.3477 43.4375 53.8359 45.3008 56.0156 45.3008ZM66.1172 40.0156L71.7773 34.3672H74.2617L68.7422 39.8281L74.4258 47H72.0586L67.3125 41.082L66.1172 42.207V47H64.0781V29.3516H66.1172V40.0156Z" fill="white"/>
<path d="M96.0938 34.7266H99.9609C103.305 34.7266 105.281 36.8125 105.281 40.3594C105.281 43.9141 103.312 46 99.9609 46H96.0938V34.7266ZM97.5 35.9922V44.7344H99.8672C102.422 44.7344 103.844 43.1719 103.844 40.375C103.844 37.5547 102.43 35.9922 99.8672 35.9922H97.5ZM110.328 46.0781C107.961 46.0781 106.445 44.3984 106.445 41.7891C106.445 39.1719 107.961 37.5 110.328 37.5C112.695 37.5 114.211 39.1719 114.211 41.7891C114.211 44.3984 112.695 46.0781 110.328 46.0781ZM110.328 44.8672C111.898 44.8672 112.828 43.7188 112.828 41.7891C112.828 39.8516 111.898 38.7109 110.328 38.7109C108.758 38.7109 107.828 39.8594 107.828 41.7891C107.828 43.7188 108.766 44.8672 110.328 44.8672ZM126.297 37.5781L123.938 46H122.562L120.641 39.4531H120.609L118.688 46H117.312L114.953 37.5781H116.297L118.008 44.4609H118.039L119.969 37.5781H121.281L123.211 44.4609H123.242L124.953 37.5781H126.297ZM127.453 46V37.5781H128.734V38.9453H128.766C129.297 37.9922 130.211 37.5 131.516 37.5C133.367 37.5 134.516 38.6875 134.516 40.6016V46H133.156V40.8359C133.156 39.4609 132.438 38.7109 131.109 38.7109C129.727 38.7109 128.812 39.6641 128.812 41.1094V46H127.453ZM136.406 46V34.2344H137.766V46H136.406ZM143.156 46.0781C140.789 46.0781 139.273 44.3984 139.273 41.7891C139.273 39.1719 140.789 37.5 143.156 37.5C145.523 37.5 147.039 39.1719 147.039 41.7891C147.039 44.3984 145.523 46.0781 143.156 46.0781ZM143.156 44.8672C144.727 44.8672 145.656 43.7188 145.656 41.7891C145.656 39.8516 144.727 38.7109 143.156 38.7109C141.586 38.7109 140.656 39.8594 140.656 41.7891C140.656 43.7188 141.594 44.8672 143.156 44.8672ZM151.219 44.8984C152.594 44.8984 153.602 44.0078 153.602 42.7969V42.1172L151.398 42.2578C150.133 42.3359 149.477 42.7969 149.477 43.6094C149.477 44.3906 150.156 44.8984 151.219 44.8984ZM150.93 46.0781C149.219 46.0781 148.086 45.0938 148.086 43.6016C148.086 42.1562 149.195 41.3047 151.242 41.1797L153.602 41.0391V40.3359C153.602 39.2891 152.914 38.7109 151.672 38.7109C150.695 38.7109 149.969 39.2109 149.805 40.0078H148.5C148.539 38.5859 149.922 37.5 151.688 37.5C153.68 37.5 154.961 38.5625 154.961 40.2188V46H153.672V44.5391H153.641C153.164 45.4766 152.109 46.0781 150.93 46.0781ZM159.961 46.0781C157.844 46.0781 156.352 44.3594 156.352 41.7891C156.352 39.2188 157.836 37.5 159.93 37.5C161.133 37.5 162.102 38.0234 162.617 38.9453H162.648V34.2344H164.008V46H162.711V44.5781H162.688C162.141 45.5469 161.18 46.0781 159.961 46.0781ZM160.203 38.7109C158.727 38.7109 157.742 39.9297 157.742 41.7891C157.742 43.6562 158.727 44.8672 160.203 44.8672C161.664 44.8672 162.656 43.625 162.656 41.7891C162.656 39.9609 161.664 38.7109 160.203 38.7109ZM177.266 46L176.133 42.7734H171.648L170.516 46H169.039L173.195 34.7266H174.586L178.742 46H177.266ZM173.867 36.4375L172.062 41.5781H175.719L173.914 36.4375H173.867ZM180.031 34.7266H184.289C186.406 34.7266 187.898 36.2109 187.898 38.3438C187.898 40.4844 186.391 41.9766 184.273 41.9766H181.438V46H180.031V34.7266ZM181.438 35.9766V40.7266H183.922C185.531 40.7266 186.453 39.8438 186.453 38.3438C186.453 36.8516 185.539 35.9766 183.922 35.9766H181.438ZM190.922 46H189.516V34.7266H190.922V40.2266H191L195.977 34.7266H197.75L193.117 39.7188L198.164 46H196.367L192.141 40.7188L190.922 42.0625V46ZM203.461 46V38.7031H202.289V37.5781H203.461V36.7969C203.461 35.2422 204.141 34.5469 205.703 34.5469C205.969 34.5469 206.203 34.5703 206.461 34.6172V35.7422C206.281 35.7031 206.039 35.6797 205.828 35.6797C205.125 35.6797 204.828 36.0078 204.82 36.7969V37.5781H206.461V38.7031H204.82V46H203.461ZM208.016 46V37.5781H209.375V46H208.016ZM208.695 36.2188C208.227 36.2188 207.836 35.8281 207.836 35.3594C207.836 34.8828 208.227 34.5 208.695 34.5C209.172 34.5 209.555 34.8828 209.555 35.3594C209.555 35.8281 209.172 36.2188 208.695 36.2188ZM211.375 46V34.2344H212.734V46H211.375ZM218.016 38.6953C216.695 38.6953 215.742 39.6562 215.648 41.0781H220.281C220.25 39.6484 219.344 38.6953 218.016 38.6953ZM220.25 43.5938H221.594C221.359 45.0391 219.898 46.0781 218.102 46.0781C215.734 46.0781 214.242 44.4297 214.242 41.8203C214.242 39.2109 215.742 37.5 218.039 37.5C220.289 37.5 221.695 39.0859 221.695 41.6328V42.1641H215.648V42.2422C215.648 43.8438 216.633 44.8828 218.133 44.8828C219.188 44.8828 220.008 44.3828 220.25 43.5938Z" fill="white"/>
<defs>
<linearGradient id="paint0_linear_3955_3785" x1="127" y1="80" x2="127" y2="0" gradientUnits="userSpaceOnUse">
<stop/>
<stop offset="1" stop-color="#292929"/>
</linearGradient>
</defs>
</svg>
