<svg width="254" height="80" viewBox="0 0 254 80" fill="none" xmlns="http://www.w3.org/2000/svg">
<rect x="0.5" y="0.5" width="253" height="79" rx="19.5" fill="url(#paint0_linear_3955_3779)" stroke="#515054"/>
<path d="M63.2462 38.7597C63.1968 33.2714 67.7412 30.6014 67.949 30.477C65.3753 26.7257 61.3862 26.2131 59.9844 26.1723C56.634 25.8198 53.3841 28.1765 51.6774 28.1765C49.9367 28.1765 47.3085 26.2063 44.4759 26.2642C40.8309 26.3204 37.4209 28.4302 35.5507 31.7065C31.691 38.3867 34.5696 48.2036 38.2674 53.6033C40.1172 56.2495 42.2787 59.2006 45.1078 59.0967C47.8757 58.9843 48.9096 57.3342 52.2497 57.3342C55.5592 57.3342 56.5301 59.0967 59.4155 59.0303C62.386 58.9843 64.2562 56.3739 66.0413 53.7055C68.1789 50.6761 69.0374 47.6894 69.0715 47.5361C69.0033 47.5123 63.3041 45.336 63.2462 38.7597ZM57.7957 22.6201C59.2843 20.7589 60.3029 18.2268 60.0202 15.6572C57.8655 15.7526 55.1709 17.1472 53.6192 18.9675C52.2463 20.5716 51.02 23.2008 51.3368 25.6733C53.7572 25.8538 56.2423 24.4524 57.7957 22.6201Z" fill="white"/>
<path d="M103.337 58.7166H99.4685L97.3496 52.0602H89.9846L87.9662 58.7166H84.2002L91.4988 36.0552H96.0057L103.337 58.7166ZM96.7109 49.2675L94.7947 43.3502C94.592 42.7456 94.2104 41.3221 93.6518 39.0811H93.5836C93.3588 40.0449 92.9994 41.4685 92.5071 43.3502L90.6233 49.2675H96.7109ZM122.069 50.3454C122.069 53.1245 121.315 55.3211 119.804 56.9337C118.452 58.3692 116.771 59.0861 114.766 59.0861C112.601 59.0861 111.044 58.3147 110.099 56.7685V65.3423H106.467V47.7469C106.467 46.0015 106.421 44.2118 106.333 42.3761H109.526L109.729 44.9662H109.797C111.008 43.0147 112.846 42.039 115.313 42.039C117.241 42.039 118.85 42.8001 120.138 44.3242C121.424 45.8516 122.069 47.8576 122.069 50.3454ZM118.37 50.4782C118.37 48.8878 118.012 47.5766 117.293 46.543C116.508 45.4685 115.454 44.9304 114.132 44.9304C113.236 44.9304 112.422 45.2301 111.695 45.821C110.966 46.417 110.489 47.1952 110.266 48.159C110.166 48.5194 110.109 48.8904 110.097 49.2641V51.9904C110.097 53.1772 110.462 54.1802 111.191 55.001C111.92 55.8184 112.867 56.2287 114.032 56.2287C115.399 56.2287 116.464 55.6992 117.225 54.6485C117.988 53.5944 118.37 52.2049 118.37 50.4782ZM140.869 50.3454C140.869 53.1245 140.114 55.3211 138.603 56.9337C137.249 58.3692 135.57 59.0861 133.563 59.0861C131.398 59.0861 129.842 58.3147 128.896 56.7685V65.3423H125.265V47.7469C125.265 46.0015 125.219 44.2118 125.13 42.3761H128.324L128.527 44.9662H128.595C129.804 43.0147 131.642 42.039 134.11 42.039C136.036 42.039 137.646 42.8001 138.937 44.3242C140.221 45.8516 140.869 47.8576 140.869 50.3454ZM137.167 50.4782C137.167 48.8878 136.808 47.5766 136.089 46.543C135.304 45.4685 134.253 44.9304 132.931 44.9304C132.035 44.9304 131.221 45.2301 130.491 45.821C129.762 46.417 129.286 47.1952 129.063 48.159C128.952 48.6085 128.893 48.9746 128.893 49.2641V51.9904C128.893 53.1772 129.259 54.1802 129.985 55.001C130.714 55.8167 131.661 56.2287 132.829 56.2287C134.199 56.2287 135.263 55.6992 136.023 54.6485C136.786 53.5944 137.167 52.2049 137.167 50.4782ZM161.887 52.3599C161.887 54.2892 161.213 55.8575 159.872 57.0682C158.397 58.3896 156.338 59.052 153.698 59.052C151.259 59.052 149.303 58.5821 147.828 57.6404L148.668 54.6144C150.261 55.5578 152.01 56.0278 153.914 56.0278C155.284 56.0278 156.348 55.7179 157.108 55.1032C157.869 54.4867 158.254 53.6626 158.254 52.634C158.254 51.7128 157.936 50.9414 157.311 50.3131C156.682 49.6864 155.643 49.1023 154.183 48.566C150.215 47.0862 148.229 44.9219 148.229 42.0747C148.229 40.2152 148.93 38.6929 150.33 37.5026C151.731 36.314 153.587 35.7197 155.897 35.7197C157.96 35.7197 159.678 36.079 161.042 36.7959L160.131 39.7555C158.847 39.0607 157.397 38.7133 155.776 38.7133C154.495 38.7133 153.49 39.0283 152.771 39.655C152.167 40.2152 151.86 40.8981 151.86 41.7086C151.86 42.6026 152.209 43.345 152.904 43.9274C153.507 44.4638 154.607 45.0479 156.198 45.6745C158.15 46.4612 159.584 47.3774 160.503 48.4297C161.427 49.4821 161.887 50.795 161.887 52.3599ZM173.924 45.1007H169.922V53.0342C169.922 55.0521 170.627 56.0585 172.041 56.0585C172.69 56.0585 173.228 56.004 173.654 55.8899L173.754 58.6468C173.039 58.9141 172.097 59.0486 170.93 59.0486C169.496 59.0486 168.375 58.611 167.566 57.7358C166.76 56.8605 166.355 55.3943 166.355 53.3305V45.0939H163.97V42.3693H166.355V39.3774L169.922 38.3012V42.3693H173.924V45.1007ZM191.949 50.4118C191.949 52.9235 191.23 54.9857 189.796 56.5983C188.295 58.2585 186.299 59.0861 183.81 59.0861C181.409 59.0861 179.499 58.2909 178.075 56.7021C176.651 55.11 175.939 53.104 175.939 50.6843C175.939 48.1522 176.675 46.0781 178.142 44.4655C179.612 42.8512 181.591 42.0441 184.08 42.0441C186.478 42.0441 188.404 42.841 189.862 44.4315C191.255 45.9742 191.949 47.9666 191.949 50.4118ZM188.184 50.4953C188.184 48.9985 187.861 47.7145 187.212 46.64C186.45 45.3425 185.36 44.6937 183.948 44.6937C182.494 44.6937 181.378 45.3425 180.618 46.64C179.968 47.7145 179.644 49.0206 179.644 50.5634C179.644 52.0619 179.968 53.3492 180.618 54.4203C181.404 55.7179 182.499 56.3667 183.918 56.3667C185.306 56.3667 186.394 55.7043 187.181 54.388C187.849 53.2879 188.184 51.9955 188.184 50.4953ZM203.758 45.569C203.38 45.5008 202.997 45.4672 202.613 45.4685C201.336 45.4685 200.348 45.9487 199.653 46.9159C199.05 47.7673 198.747 48.8435 198.747 50.1428V58.7166H195.115V47.5221C195.118 45.8068 195.083 44.0916 195.01 42.3778H198.173L198.305 45.5042H198.406C198.791 44.4298 199.394 43.563 200.222 42.9142C200.979 42.3473 201.9 42.0403 202.846 42.039C203.182 42.039 203.485 42.0628 203.754 42.1054L203.758 45.569ZM219.999 49.7733C220.008 50.3252 219.963 50.8766 219.866 51.4199H208.971C209.012 53.0342 209.54 54.2705 210.552 55.1219C211.47 55.8814 212.657 56.2628 214.115 56.2628C215.728 56.2628 217.2 56.0074 218.523 55.4914L219.092 58.0099C217.546 58.6842 215.72 59.0197 213.613 59.0197C211.078 59.0197 209.089 58.2739 207.641 56.7856C206.197 55.2956 205.473 53.293 205.473 50.7848C205.473 48.3224 206.146 46.2705 207.493 44.6341C208.903 42.887 210.809 42.0134 213.208 42.0134C215.563 42.0134 217.346 42.887 218.558 44.6341C219.516 46.0185 219.999 47.735 219.999 49.7733ZM216.536 48.8316C216.561 47.7537 216.323 46.8257 215.831 46.0406C215.202 45.0292 214.235 44.5251 212.938 44.5251C211.751 44.5251 210.784 45.0172 210.048 46.0049C209.443 46.7899 209.084 47.7333 208.973 48.8282L216.536 48.8316Z" fill="white"/>
<path d="M88.9363 28.0438C87.9263 28.0438 87.0525 27.9944 86.3252 27.911V16.9549C87.3424 16.7978 88.3704 16.7204 89.3996 16.7233C93.5642 16.7233 95.4821 18.7718 95.4821 22.1111C95.4821 25.9629 93.2167 28.0438 88.9363 28.0438ZM89.5461 18.1282C88.984 18.1282 88.5054 18.1622 88.1085 18.244V26.5725C88.3232 26.6066 88.7353 26.6219 89.3145 26.6219C92.0431 26.6219 93.5965 25.0689 93.5965 22.1605C93.5965 19.5671 92.1913 18.1282 89.5461 18.1282ZM101.459 28.1272C99.1118 28.1272 97.5908 26.375 97.5908 23.9961C97.5908 21.5168 99.1442 19.7493 101.592 19.7493C103.905 19.7493 105.46 21.418 105.46 23.865C105.46 26.375 103.857 28.1272 101.459 28.1272ZM101.527 21.0536C100.238 21.0536 99.4116 22.2592 99.4116 23.9451C99.4116 25.5985 100.255 26.8041 101.51 26.8041C102.765 26.8041 103.608 25.5151 103.608 23.911C103.608 22.2763 102.782 21.0536 101.527 21.0536ZM118.844 19.9144L116.332 27.945H114.695L113.655 24.4576C113.396 23.6046 113.18 22.739 113.009 21.8642H112.975C112.844 22.7395 112.595 23.6164 112.331 24.4576L111.224 27.945H109.57L107.206 19.9144H109.04L109.95 23.7322C110.164 24.6415 110.345 25.4998 110.495 26.3103H110.529C110.66 25.6343 110.875 24.7897 111.19 23.7492L112.331 19.9161H113.786L114.877 23.6675C115.141 24.5768 115.356 25.4691 115.523 26.312H115.571C115.687 25.4861 115.869 24.6092 116.116 23.6675L117.092 19.9161L118.844 19.9144ZM128.093 27.945H126.308V23.3337C126.308 21.9136 125.763 21.2018 124.688 21.2018C123.631 21.2018 122.903 22.1111 122.903 23.1686V27.945H121.118V22.2099C121.118 21.4998 121.101 20.7386 121.052 19.9127H122.622L122.706 21.1524H122.755C123.236 20.2942 124.21 19.7493 125.302 19.7493C126.988 19.7493 128.095 21.0383 128.095 23.1362L128.093 27.945ZM133.016 27.945H131.229V16.2295H133.016V27.945ZM139.524 28.1272C137.179 28.1272 135.656 26.375 135.656 23.9961C135.656 21.5168 137.209 19.7493 139.655 19.7493C141.97 19.7493 143.523 21.418 143.523 23.865C143.525 26.375 141.921 28.1272 139.524 28.1272ZM139.591 21.0536C138.301 21.0536 137.475 22.2592 137.475 23.9451C137.475 25.5985 138.32 26.8041 139.572 26.8041C140.829 26.8041 141.67 25.5151 141.67 23.911C141.672 22.2763 140.848 21.0536 139.591 21.0536ZM150.561 27.945L150.432 27.0204H150.384C149.839 27.7645 149.044 28.1272 148.035 28.1272C146.596 28.1272 145.574 27.1192 145.574 25.7637C145.574 23.7816 147.293 22.7565 150.268 22.7565V22.6083C150.268 21.5509 149.708 21.0213 148.601 21.0213C147.809 21.0213 147.114 21.2205 146.502 21.6173L146.14 20.444C146.882 19.9808 147.809 19.7493 148.897 19.7493C150.996 19.7493 152.055 20.8561 152.055 23.0715V26.0293C152.055 26.8399 152.091 27.4682 152.171 27.9467L150.561 27.945ZM150.316 23.9451C148.334 23.9451 147.339 24.4253 147.339 25.5645C147.339 26.4074 147.851 26.8195 148.563 26.8195C149.471 26.8195 150.316 26.1264 150.316 25.1847V23.9451ZM160.723 27.945L160.64 26.656H160.59C160.078 27.63 159.216 28.1272 158.012 28.1272C156.075 28.1272 154.641 26.4244 154.641 24.0285C154.641 21.5168 156.128 19.7476 158.158 19.7476C159.233 19.7476 159.994 20.1103 160.423 20.8391H160.459V16.2295H162.246V25.7807C162.246 26.5572 162.265 27.2843 162.312 27.945H160.723ZM160.459 23.2197C160.459 22.0958 159.715 21.1371 158.579 21.1371C157.255 21.1371 156.446 22.3103 156.446 23.9621C156.446 25.5815 157.286 26.69 158.543 26.69C159.666 26.69 160.459 25.7143 160.459 24.5581V23.2197ZM173.575 28.1272C171.229 28.1272 169.708 26.375 169.708 23.9961C169.708 21.5168 171.262 19.7493 173.707 19.7493C176.022 19.7493 177.576 21.418 177.576 23.865C177.577 26.375 175.975 28.1272 173.575 28.1272ZM173.641 21.0536C172.353 21.0536 171.527 22.2592 171.527 23.9451C171.527 25.5985 172.37 26.8041 173.624 26.8041C174.881 26.8041 175.722 25.5151 175.722 23.911C175.726 22.2763 174.9 21.0536 173.641 21.0536ZM187.175 27.945H185.389V23.3337C185.389 21.9136 184.844 21.2018 183.769 21.2018C182.711 21.2018 181.985 22.1111 181.985 23.1686V27.945H180.199V22.2099C180.199 21.4998 180.182 20.7386 180.132 19.9127H181.703L181.786 21.1524H181.836C182.314 20.2942 183.29 19.7476 184.38 19.7476C186.067 19.7476 187.175 21.0366 187.175 23.1345V27.945ZM199.185 21.2529H197.221V25.1524C197.221 26.1451 197.565 26.6407 198.26 26.6407C198.575 26.6407 198.84 26.6066 199.052 26.5572L199.102 27.9127C198.756 28.0455 198.293 28.1119 197.717 28.1119C196.31 28.1119 195.469 27.3354 195.469 25.3022V21.2529H194.297V19.9144H195.469V18.4432L197.221 17.9136V19.9127H199.185V21.2529ZM208.635 27.945H206.852V23.3678C206.852 21.9306 206.308 21.2035 205.232 21.2035C204.307 21.2035 203.445 21.8318 203.445 23.1039V27.945H201.662V16.2295H203.445V21.0536H203.481C204.043 20.1784 204.857 19.7476 205.896 19.7476C207.596 19.7476 208.635 21.069 208.635 23.1686V27.945ZM218.317 24.3589H212.96C212.994 25.8795 214.001 26.7377 215.491 26.7377C216.283 26.7377 217.012 26.6049 217.656 26.358L217.933 27.5977C217.174 27.928 216.28 28.0932 215.239 28.0932C212.726 28.0932 211.239 26.5061 211.239 24.0455C211.239 21.5832 212.762 19.7322 215.038 19.7322C217.09 19.7322 218.378 21.2529 218.378 23.55C218.39 23.8211 218.369 24.0926 218.317 24.3589ZM216.68 23.0868C216.68 21.8472 216.055 20.9719 214.913 20.9719C213.888 20.9719 213.077 21.8642 212.962 23.0868H216.68Z" fill="white"/>
<defs>
<linearGradient id="paint0_linear_3955_3779" x1="127" y1="80" x2="127" y2="0" gradientUnits="userSpaceOnUse">
<stop/>
<stop offset="1" stop-color="#292929"/>
</linearGradient>
</defs>
</svg>
