<svg width="23" height="28" viewBox="0 0 23 28" fill="none" xmlns="http://www.w3.org/2000/svg">
<path d="M19.0015 14.8903C18.9697 11.353 21.894 9.63202 22.0277 9.5519C20.3715 7.13402 17.8046 6.80366 16.9025 6.77732C14.7465 6.55013 12.6553 8.06913 11.557 8.06913C10.4368 8.06913 8.7456 6.79927 6.92284 6.83659C4.57727 6.8728 2.38295 8.23266 1.17947 10.3443C-1.30421 14.65 0.548137 20.9773 2.92769 24.4576C4.11802 26.1632 5.50892 28.0652 7.32948 27.9983C9.11058 27.9258 9.7759 26.8623 11.9253 26.8623C14.0549 26.8623 14.6797 27.9983 16.5364 27.9555C18.4479 27.9258 19.6514 26.2433 20.8001 24.5235C22.1757 22.5709 22.7281 20.6459 22.75 20.5471C22.7062 20.5317 19.0387 19.1291 19.0015 14.8903ZM15.4941 4.48785C16.452 3.28823 17.1075 1.65619 16.9255 0C15.539 0.0614623 13.805 0.960349 12.8065 2.13362C11.9231 3.1675 11.1339 4.86211 11.3378 6.45574C12.8953 6.57208 14.4944 5.6688 15.4941 4.48785Z" fill="white"/>
</svg>
