<svg width="101" height="100" viewBox="0 0 101 100" fill="none" xmlns="http://www.w3.org/2000/svg">
<circle cx="50.5" cy="50" r="49.5" fill="#3D3C43" stroke="#515054"/>
<path d="M72.4054 67.7788C71.7749 70.6914 69.298 72.8527 66.304 73.1046C61.7519 73.4779 56.433 73.7501 50.493 73.7501C44.553 73.7501 39.2337 73.4802 34.6821 73.1046C31.6881 72.8527 29.2113 70.6914 28.5806 67.7788C28.1996 66.0786 28.0045 64.34 28 62.597V62.4823C28.034 58.9896 30.7513 56.0972 34.2646 55.8208C38.9097 55.4295 44.3736 55.1416 50.5226 55.1416C55.0635 55.1416 60.5614 55.2968 66.7284 55.8208C70.2418 56.102 72.9611 58.992 73 62.4892V62.6039C72.9887 64.3447 72.791 66.0808 72.4054 67.7788Z" fill="#919191"/>
<path d="M62.478 38.1342C62.478 44.6967 57.1116 50.0184 50.4929 50.0184C43.8743 50.0184 38.5078 44.6971 38.5078 38.1342C38.5078 31.5713 43.8743 26.25 50.4929 26.25C57.1116 26.25 62.478 31.5713 62.478 38.1342Z" fill="#919191"/>
</svg>
