<svg width="41" height="40" viewBox="0 0 41 40" fill="none" xmlns="http://www.w3.org/2000/svg">
<rect x="0.573242" width="40" height="40" rx="10" fill="#919191"/>
<path d="M12.859 12C12.1489 12 11.5732 12.632 11.5732 13.4118C11.5732 14.1914 12.1489 14.8235 12.859 14.8235H28.2875C28.9976 14.8235 29.5732 14.1914 29.5732 13.4118C29.5732 12.632 28.9976 12 28.2875 12H12.859ZM12.859 18.5882C12.1489 18.5882 11.5732 19.2203 11.5732 20C11.5732 20.7797 12.1489 21.4118 12.859 21.4118H28.2875C28.9976 21.4118 29.5732 20.7797 29.5732 20C29.5732 19.2203 28.9976 18.5882 28.2875 18.5882H12.859ZM12.859 25.1765C12.1489 25.1765 11.5732 25.8085 11.5732 26.5882C11.5732 27.3679 12.1489 28 12.859 28H28.2875C28.9976 28 29.5732 27.3679 29.5732 26.5882C29.5732 25.8085 28.9976 25.1765 28.2875 25.1765H12.859Z" fill="white"/>
</svg>
