<svg width="18" height="18" viewBox="0 0 18 18" fill="none" xmlns="http://www.w3.org/2000/svg">
<path d="M17.5113 15.1519C17.8242 15.4648 18 15.8891 18 16.3316C18 16.7741 17.8242 17.1985 17.5113 17.5113C17.1985 17.8242 16.7741 18 16.3316 18C15.8891 18 15.4648 17.8242 15.1519 17.5113L9.2696 11.6291C9.1981 11.5576 9.10112 11.5174 9 11.5174C8.89888 11.5174 8.8019 11.5576 8.7304 11.6291L2.84811 17.5113C2.53523 17.8242 2.11087 18 1.66839 18C1.2259 18 0.801542 17.8242 0.488659 17.5113C0.175776 17.1985 0 16.7741 0 16.3316C0 15.8891 0.175776 15.4648 0.488659 15.1519L6.37094 9.2698C6.44246 9.19826 6.48263 9.10125 6.48263 9.0001C6.48263 8.89894 6.44246 8.80193 6.37094 8.7304L0.488659 2.84811C0.175776 2.53523 0 2.11087 0 1.66839C0 1.2259 0.175776 0.801542 0.488659 0.488659C0.801542 0.175776 1.2259 0 1.66839 0C2.11087 0 2.53523 0.175776 2.84811 0.488659L8.7304 6.37114C8.8019 6.44264 8.89888 6.48281 9 6.48281C9.10112 6.48281 9.1981 6.44264 9.2696 6.37114L15.1519 0.488659C15.4648 0.175776 15.8891 0 16.3316 0C16.7741 0 17.1985 0.175776 17.5113 0.488659C17.8242 0.801542 18 1.2259 18 1.66839C18 2.11087 17.8242 2.53523 17.5113 2.84811L11.6291 8.7304C11.5575 8.80193 11.5174 8.89894 11.5174 9.0001C11.5174 9.10125 11.5575 9.19826 11.6291 9.2698L17.5113 15.1519Z" fill="#01B9E1"/>
</svg>
