<svg width="20" height="20" viewBox="0 0 20 20" fill="none" xmlns="http://www.w3.org/2000/svg">
<path d="M17.1429 0H7.85714C6.27857 0 5 1.27857 5 2.85714V3.57143H12.1429C14.5071 3.57143 16.4286 5.49286 16.4286 7.85714V15H17.1429C18.7214 15 20 13.7214 20 12.1429V2.85714C20 1.27857 18.7214 0 17.1429 0Z" fill="white"/>
<path d="M12.1429 5H2.85714C1.27919 5 0 6.27919 0 7.85714V17.1429C0 18.7208 1.27919 20 2.85714 20H12.1429C13.7208 20 15 18.7208 15 17.1429V7.85714C15 6.27919 13.7208 5 12.1429 5Z" fill="white"/>
</svg>
