<svg width="60" height="60" viewBox="0 0 60 60" fill="none" xmlns="http://www.w3.org/2000/svg">
<circle cx="30" cy="30" r="29.5" fill="#3D3C43" stroke="#515054"/>
<path d="M19.9324 42.386C21.5146 42.5749 23.2923 43.5999 24.78 43.7808C26.2757 43.9697 26.7386 42.7623 26.7386 42.7623C26.7386 42.7623 28.4217 42.386 30.1912 42.3426C31.9625 42.293 33.6391 42.711 33.6391 42.711C33.6391 42.711 33.9643 43.4557 34.5712 43.7808C35.1782 44.1123 36.485 44.1571 37.3225 43.2747C38.1616 42.386 40.4005 41.2665 41.6576 40.5667C42.9228 39.8652 42.6906 38.7955 41.8963 38.4704C41.102 38.1453 40.4518 37.6328 40.5014 36.6495C40.5447 35.6743 39.8 35.0241 39.8 35.0241C39.8 35.0241 40.4518 32.8782 39.8449 31.1006C39.2379 29.331 37.2361 26.4852 35.6971 24.3457C34.1582 22.1998 35.4649 19.7224 34.0637 16.5563C32.6624 13.3854 29.0288 13.5729 27.0702 14.9244C25.1116 16.276 25.7121 19.6278 25.8066 21.2181C25.9011 22.8003 25.8498 23.9325 25.6689 24.3393C25.4879 24.7525 24.2244 26.253 23.3852 27.5102C22.5477 28.7737 21.9407 31.3825 21.3273 32.4587C20.7268 33.5285 21.1464 34.5037 21.1464 34.5037C21.1464 34.5037 20.7269 34.6478 20.3953 35.3493C20.0702 36.0427 19.42 36.3742 18.2493 36.6001C17.0867 36.8387 17.0867 37.5882 17.367 38.4273C17.6488 39.2648 17.367 39.7341 17.0418 40.8039C16.7168 41.8735 18.3438 42.1986 19.9324 42.386ZM36.3792 37.5063C37.2104 37.8698 38.4051 37.3637 38.7686 37.0002C39.1306 36.6383 39.3868 36.1002 39.3868 36.1002C39.3868 36.1002 39.7503 36.2811 39.7134 36.856C39.675 37.4389 39.9632 38.2701 40.5077 38.5584C41.0522 38.845 41.8833 39.2453 41.4526 39.6457C41.0137 40.0461 38.586 41.0229 37.8606 41.7852C37.1415 42.5426 36.1967 43.1625 35.6217 42.9799C35.0405 42.7989 34.5328 42.0047 34.7827 40.842C35.0405 39.6842 35.2583 38.4142 35.2214 37.6887C35.183 36.9633 35.0405 35.9865 35.2214 35.8423C35.4024 35.6997 35.6907 35.7686 35.6907 35.7686C35.6907 35.7686 35.5464 37.1445 36.3792 37.5063ZM30.9856 17.9079C31.7863 17.9079 32.4317 18.7022 32.4317 19.679C32.4317 20.3725 32.1066 20.973 31.631 21.2613C31.5109 21.2117 31.3859 21.1556 31.2482 21.0979C31.5365 20.9554 31.7366 20.5919 31.7366 20.1723C31.7366 19.623 31.3988 19.1714 30.9743 19.1714C30.5611 19.1714 30.2168 19.623 30.2168 20.1723C30.2168 20.3726 30.2665 20.5727 30.3481 20.7296C30.0983 20.6287 29.8725 20.5423 29.6915 20.4734C29.5971 20.2348 29.541 19.9657 29.541 19.6791C29.5411 18.7023 30.1848 17.9079 30.9856 17.9079ZM29.003 20.9603C29.397 21.0291 30.4794 21.4984 30.8799 21.6425C31.2803 21.7802 31.7238 22.0364 31.6806 22.2927C31.631 22.5569 31.4244 22.5569 30.8799 22.8884C30.3418 23.2135 29.1664 23.9389 28.79 23.9886C28.4152 24.0382 28.2023 23.8268 27.8018 23.5689C27.4014 23.3063 26.6505 22.6929 26.8393 22.3679C26.8393 22.3679 27.4271 21.9179 27.6833 21.6873C27.9396 21.4487 28.6026 20.8866 29.003 20.9603ZM27.2766 18.1898C27.9075 18.1898 28.4216 18.9409 28.4216 19.8665C28.4216 20.0347 28.4024 20.1915 28.372 20.3485C28.2151 20.3981 28.0582 20.4798 27.9075 20.6111C27.8339 20.6736 27.765 20.7296 27.7026 20.7921C27.8018 20.6048 27.8403 20.3357 27.7954 20.0538C27.709 19.5542 27.3711 19.1843 27.0395 19.2339C26.7064 19.29 26.5078 19.748 26.5879 20.2541C26.676 20.7666 27.0074 21.1364 27.3453 21.0804C27.3646 21.074 27.3822 21.0676 27.4014 21.0611C27.2397 21.2181 27.0892 21.3558 26.9322 21.4679C26.4758 21.2549 26.1379 20.6175 26.1379 19.8665C26.138 18.9345 26.644 18.1898 27.2766 18.1898ZM23.7614 30.3063C24.4116 29.2814 24.8312 27.0409 25.4813 26.2963C26.138 25.5532 26.644 23.9694 26.4134 23.2696C26.4134 23.2696 27.8147 24.9463 28.79 24.6709C29.7669 24.3889 31.9625 22.7571 32.2875 23.0374C32.6127 23.3192 35.4088 29.4688 35.6906 31.4273C35.9725 33.3843 35.5032 34.8801 35.5032 34.8801C35.5032 34.8801 34.4335 34.5982 34.2957 35.2484C34.158 35.9049 34.158 38.2831 34.158 38.2831C34.158 38.2831 32.7119 40.2849 30.4731 40.6164C28.2342 40.9415 27.1131 40.7045 27.1131 40.7045L25.856 39.2647C25.856 39.2647 26.833 39.1207 26.6952 38.1389C26.5574 37.1637 23.71 35.812 23.1975 34.5981C22.6852 33.3842 23.1032 31.3328 23.7614 30.3063ZM18.2253 37.6505C18.3373 37.1701 19.7882 37.1701 20.3455 36.8322C20.9029 36.4943 21.0149 35.5238 21.465 35.2676C21.9085 35.0049 22.7285 35.937 23.0664 36.4622C23.3979 36.9747 24.6679 39.2151 25.1868 39.7724C25.712 40.3345 26.1941 41.0791 26.0435 41.7486C25.9011 42.4179 25.1115 42.9064 25.1115 42.9064C24.4053 43.1242 22.4355 42.2738 21.5404 41.899C20.6452 41.5227 18.3679 41.4106 18.0749 41.0791C17.7738 40.7412 18.219 39.9966 18.3374 39.2903C18.4431 38.5761 18.1116 38.1325 18.2253 37.6505Z" fill="#919191"/>
</svg>
