<svg width="60" height="60" viewBox="0 0 60 60" fill="none" xmlns="http://www.w3.org/2000/svg">
<circle cx="30" cy="30" r="29.5" fill="#3D3C43" stroke="#515054"/>
<path d="M41.6454 23.228C41.4713 23.363 38.399 25.0942 38.399 28.9436C38.399 33.396 42.3084 34.9712 42.4254 35.0102C42.4074 35.1062 41.8044 37.1674 40.3642 39.2676C39.0801 41.1158 37.739 42.961 35.6988 42.961C33.6586 42.961 33.1335 41.7759 30.7783 41.7759C28.483 41.7759 27.667 43 25.8008 43C23.9346 43 22.6325 41.2898 21.1353 39.1896C19.4011 36.7234 18 32.892 18 29.2556C18 23.423 21.7924 20.3297 25.5248 20.3297C27.508 20.3297 29.1611 21.6319 30.4062 21.6319C31.5914 21.6319 33.4395 20.2517 35.6958 20.2517C36.5509 20.2517 39.6232 20.3297 41.6454 23.228ZM34.6247 17.7825C35.5578 16.6754 36.2178 15.1392 36.2178 13.6031C36.2178 13.39 36.1998 13.174 36.1608 13C34.6427 13.057 32.8365 14.0111 31.7474 15.2742C30.8923 16.2463 30.0942 17.7825 30.0942 19.3396C30.0942 19.5737 30.1332 19.8077 30.1512 19.8827C30.2472 19.9007 30.4032 19.9217 30.5593 19.9217C31.9214 19.9217 33.6346 19.0096 34.6247 17.7825Z" fill="#919191"/>
</svg>
