<svg width="60" height="60" viewBox="0 0 60 60" fill="none" xmlns="http://www.w3.org/2000/svg">
<circle cx="30" cy="30" r="29.5" fill="#3D3C43" stroke="#515054"/>
<path fill-rule="evenodd" clip-rule="evenodd" d="M45.807 36.2652C45.8027 36.2377 45.7983 36.2103 45.7939 36.1829C45.791 36.1652 45.7881 36.1476 45.7851 36.1299C45.7213 35.7419 45.6419 35.3585 45.5496 34.9803C45.3876 34.3196 45.1837 33.6748 44.9404 33.0503C44.7347 32.5214 44.5006 32.0069 44.2408 31.5082C43.9065 30.8679 43.5296 30.2531 43.1132 29.6685C42.6027 28.9521 42.0325 28.2809 41.41 27.6625C41.1488 27.4025 40.8784 27.1517 40.5992 26.9113C39.9946 26.3893 39.3487 25.914 38.6683 25.4891C38.6713 25.4841 38.6741 25.479 38.6769 25.4739C38.6796 25.4689 38.6823 25.4638 38.6853 25.4589C38.8412 25.1896 38.9972 24.9205 39.1533 24.6514C39.3094 24.3823 39.4655 24.1131 39.6214 23.8438L39.6263 23.8354C39.9295 23.3123 40.2327 22.7893 40.5359 22.2663C40.7553 21.8889 40.9743 21.5107 41.1924 21.1333C41.2443 21.0436 41.2851 20.951 41.3159 20.8561C41.4013 20.5917 41.405 20.3137 41.3365 20.0553C41.3191 19.9913 41.298 19.9287 41.2723 19.8677C41.2466 19.8067 41.2167 19.7472 41.1827 19.6899C41.0661 19.4941 40.8995 19.3238 40.6901 19.1995C40.5051 19.0895 40.2981 19.024 40.086 19.0051C39.9969 18.9976 39.9074 18.9983 39.8183 19.0074C39.7449 19.0149 39.6719 19.0285 39.5994 19.0473C39.3413 19.1159 39.1017 19.2575 38.9153 19.4624C38.8483 19.5362 38.7877 19.6176 38.7358 19.7072C38.5168 20.0846 38.2978 20.4628 38.0793 20.8403L37.1648 22.4177C37.0089 22.6871 36.8528 22.9562 36.6967 23.2254C36.5406 23.4945 36.3846 23.7636 36.2287 24.0329C36.2181 24.0513 36.2074 24.0696 36.1967 24.088L36.1963 24.0889C36.1729 24.129 36.1495 24.1693 36.1264 24.2099L36.1083 24.2027C36.0671 24.1863 36.0262 24.1699 35.985 24.1541C34.2661 23.4987 32.4013 23.1402 30.452 23.1402C30.3988 23.1402 30.346 23.1402 30.2923 23.1409C28.5592 23.1582 26.8941 23.4596 25.3405 24.0005C25.161 24.063 24.9833 24.1293 24.8071 24.1986C24.7945 24.1768 24.7818 24.155 24.769 24.1331C24.7497 24.1 24.7304 24.0668 24.7116 24.0336C24.5558 23.7645 24.3998 23.4955 24.2438 23.2265L24.2435 23.226C24.0874 22.9569 23.9313 22.6878 23.7755 22.4185C23.4729 21.8966 23.1704 21.3747 22.8679 20.8529L22.861 20.841C22.6415 20.4636 22.4225 20.0854 22.2045 19.708C22.1521 19.6183 22.092 19.537 22.025 19.4632C21.8386 19.2582 21.5989 19.1166 21.3409 19.0481C21.2684 19.0292 21.1954 19.0157 21.1215 19.0082C21.0329 18.9991 20.9434 18.9983 20.8543 19.0059C20.6422 19.024 20.4352 19.0895 20.2497 19.2003C20.0403 19.3245 19.8751 19.4948 19.7575 19.6907C19.7236 19.7479 19.6933 19.8074 19.668 19.8685C19.6423 19.9295 19.6203 19.992 19.6037 20.056C19.5353 20.3144 19.539 20.5924 19.6239 20.8568C19.6552 20.9518 19.6956 21.0444 19.7474 21.1341C19.9669 21.5115 20.1859 21.8896 20.4039 22.2671C20.6924 22.7639 20.9805 23.2608 21.2685 23.7576L21.3189 23.8445C21.4712 24.1077 21.6236 24.3707 21.776 24.6337L21.7867 24.6521C21.9427 24.9212 22.0987 25.1904 22.2545 25.4597C22.2557 25.462 22.257 25.4642 22.2584 25.4665C22.2598 25.4687 22.2612 25.471 22.2623 25.4732C21.6334 25.8642 21.0352 26.2974 20.4705 26.7712C20.1322 27.0553 19.8062 27.3528 19.494 27.6639C18.872 28.2824 18.3022 28.9536 17.7908 29.6701C17.3739 30.2547 16.9966 30.8686 16.6633 31.5097C16.4034 32.0084 16.1693 32.5229 15.9636 33.0518C15.7203 33.6763 15.5165 34.3211 15.3544 34.9818C15.2621 35.36 15.1836 35.7427 15.1189 36.1314C15.1093 36.188 15.1005 36.2452 15.0918 36.3019L15.0891 36.3197C15.0542 36.545 15.0248 36.7717 15 37H45.9017C45.8769 36.7717 45.8476 36.545 45.8131 36.3197L45.8154 36.3182L45.807 36.2652ZM38.4888 32.7262C39.1072 32.3145 39.1972 31.3622 38.6895 30.5992C38.1822 29.8361 37.2695 29.5512 36.6516 29.9628C36.0332 30.3745 35.9432 31.3268 36.4509 32.0898C36.9582 32.8529 37.8709 33.1378 38.4888 32.7262ZM24.2773 29.9655C24.8957 30.3771 24.9857 31.3294 24.4779 32.0925C23.9706 32.8555 23.058 33.1404 22.4396 32.7288C21.8216 32.3172 21.7316 31.3649 22.2389 30.6018C22.7467 29.8387 23.6589 29.5538 24.2773 29.9655Z" fill="#919191"/>
</svg>
