<svg width="250" height="40" viewBox="0 0 250 40" fill="none" xmlns="http://www.w3.org/2000/svg">
<path d="M0 20C0 8.95431 8.9543 0 20 0H230C241.046 0 250 8.95431 250 20C250 31.0457 241.046 40 230 40H20C8.9543 40 0 31.0457 0 20Z" fill="url(#paint0_linear_3948_4030)"/>
<path d="M0.5 20C0.5 9.23045 9.23045 0.5 20 0.5H230C240.77 0.5 249.5 9.23045 249.5 20C249.5 30.7696 240.77 39.5 230 39.5H20C9.23044 39.5 0.5 30.7696 0.5 20Z" stroke="url(#paint1_linear_3948_4030)" stroke-opacity="0.3"/>
<defs>
<linearGradient id="paint0_linear_3948_4030" x1="125" y1="0" x2="125" y2="40" gradientUnits="userSpaceOnUse">
<stop stop-color="#2E2940"/>
<stop offset="1" stop-color="#1F1B2C"/>
</linearGradient>
<linearGradient id="paint1_linear_3948_4030" x1="125" y1="0" x2="125" y2="40" gradientUnits="userSpaceOnUse">
<stop stop-color="#78E7FF"/>
<stop offset="1" stop-color="#488B99" stop-opacity="0.2"/>
</linearGradient>
</defs>
</svg>
