<svg width="18" height="17" viewBox="0 0 18 17" fill="none" xmlns="http://www.w3.org/2000/svg">
<path d="M17.6664 7.50062L14.1982 1.49938C13.842 0.880953 13.1791 0.5 12.4666 0.5H5.53527C4.82284 0.5 4.15989 0.8859 3.80367 1.49938L0.335521 7.50062C-0.0206944 8.11905 -0.0206944 8.8859 0.335521 9.49938L3.80367 15.5006C4.15989 16.1191 4.82284 16.5 5.53527 16.5H12.4666C13.1791 16.5 13.842 16.1141 14.1982 15.5006L17.6664 9.49938C18.0226 8.88095 18.0226 8.1141 17.6664 7.50062ZM8.91932 13.0022C6.43571 13.0022 4.41715 10.9836 4.41715 8.5C4.41715 6.01639 6.43571 3.99784 8.91932 3.99784C11.4029 3.99784 13.4215 6.01639 13.4215 8.5C13.4215 10.9836 11.4029 13.0022 8.91932 13.0022Z" fill="#919191"/>
</svg>
