<svg width="16" height="16" viewBox="0 0 16 16" fill="none" xmlns="http://www.w3.org/2000/svg">
<path d="M3.47215 8.25214C3.17237 7.87475 3.23543 7.32561 3.61379 7.02583C3.99119 6.72606 4.54032 6.78911 4.8401 7.16748L6.91338 9.78029V0.873154C6.91338 0.390977 7.30436 0 7.78653 0C8.26871 0 8.65969 0.390977 8.65969 0.873154V9.7783L10.733 7.16549C11.0327 6.7881 11.5819 6.72504 11.9593 7.02385C12.3367 7.32362 12.3997 7.87276 12.1009 8.25015L8.47056 12.8245C8.30466 13.0331 8.05338 13.1544 7.78659 13.1544C7.51979 13.1544 7.26852 13.0331 7.10261 12.8245L3.47225 8.25015L3.47215 8.25214ZM14.7 10.6504C14.2178 10.6504 13.8269 11.0414 13.8269 11.5236V12.9662C13.8269 13.6764 13.2496 14.2536 12.5394 14.2536H3.03373C2.32356 14.2536 1.74631 13.6764 1.74631 12.9662V11.5236C1.74631 11.0414 1.35533 10.6504 0.873154 10.6504C0.390977 10.6504 0 11.0414 0 11.5236V12.9662C0 14.6388 1.36117 16 3.03378 16H12.5395C14.2121 16 15.5733 14.6388 15.5733 12.9662V11.5236C15.5733 11.0414 15.1822 10.6504 14.7 10.6504Z" fill="#919191"/>
</svg>
