<svg width="254" height="80" viewBox="0 0 254 80" fill="none" xmlns="http://www.w3.org/2000/svg">
<rect x="0.5" y="0.5" width="253" height="79" rx="19.5" fill="url(#paint0_linear_3955_3766)" stroke="#515054"/>
<path d="M92.2429 22.6685C92.2429 24.0427 91.8993 25.2451 91.0405 26.1039C90.0098 27.1346 88.8074 27.6499 87.2615 27.6499C85.7155 27.6499 84.5131 27.1346 83.4825 26.1039C82.4518 25.0733 81.9365 23.8709 81.9365 22.3249C81.9365 20.779 82.4518 19.5766 83.4825 18.546C84.5131 17.5153 85.7155 17 87.2615 17C87.9486 17 88.6356 17.1718 89.3227 17.5153C90.0098 17.8589 90.5251 18.2024 90.8687 18.7177L90.0098 19.5766C89.3227 18.7177 88.4639 18.3742 87.2615 18.3742C86.2308 18.3742 85.2002 18.7177 84.5131 19.5766C83.6542 20.2637 83.3107 21.2943 83.3107 22.4967C83.3107 23.6991 83.6542 24.7298 84.5131 25.4168C85.372 26.1039 86.2308 26.6193 87.2615 26.6193C88.4639 26.6193 89.3227 26.2757 90.1816 25.4168C90.6969 24.9015 91.0405 24.2144 91.0405 23.3556H87.2615V21.9814H92.2429V22.6685ZM100.144 18.3742H95.5065V21.6379H99.8009V22.8403H95.5065V26.1039H100.144V27.4781H94.1324V17.1718H100.144V18.3742ZM105.813 27.4781H104.439V18.3742H101.519V17.1718H108.733V18.3742H105.813V27.4781ZM113.714 27.4781V17.1718H115.089V27.4781H113.714ZM120.929 27.4781H119.555V18.3742H116.635V17.1718H123.677V18.3742H120.757V27.4781H120.929ZM137.247 26.1039C136.217 27.1346 135.014 27.6499 133.468 27.6499C131.922 27.6499 130.72 27.1346 129.689 26.1039C128.659 25.0733 128.143 23.8709 128.143 22.3249C128.143 20.779 128.659 19.5766 129.689 18.546C130.72 17.5153 131.922 17 133.468 17C135.014 17 136.217 17.5153 137.247 18.546C138.278 19.5766 138.793 20.779 138.793 22.3249C138.793 23.8709 138.278 25.0733 137.247 26.1039ZM130.72 25.2451C131.407 25.9322 132.438 26.4475 133.468 26.4475C134.499 26.4475 135.53 26.1039 136.217 25.2451C136.904 24.558 137.419 23.5274 137.419 22.3249C137.419 21.1225 137.075 20.0919 136.217 19.4048C135.53 18.7177 134.499 18.2024 133.468 18.2024C132.438 18.2024 131.407 18.546 130.72 19.4048C130.033 20.0919 129.517 21.1225 129.517 22.3249C129.517 23.5274 129.861 24.558 130.72 25.2451ZM140.683 27.4781V17.1718H142.229L147.21 25.2451V17.1718H148.584V27.4781H147.21L141.885 19.0613V27.4781H140.683Z" fill="white" stroke="white" stroke-width="1.18519" stroke-miterlimit="10"/>
<path d="M127.799 42.5938C123.677 42.5938 120.413 45.6857 120.413 49.98C120.413 54.1026 123.677 57.3662 127.799 57.3662C131.922 57.3662 135.186 54.2743 135.186 49.98C135.186 45.5139 131.922 42.5938 127.799 42.5938ZM127.799 54.2743C125.566 54.2743 123.677 52.3848 123.677 49.8083C123.677 47.2317 125.566 45.3422 127.799 45.3422C130.032 45.3422 131.922 47.0599 131.922 49.8083C131.922 52.3848 130.032 54.2743 127.799 54.2743ZM111.825 42.5938C107.702 42.5938 104.438 45.6857 104.438 49.98C104.438 54.1026 107.702 57.3662 111.825 57.3662C115.947 57.3662 119.211 54.2743 119.211 49.98C119.211 45.5139 115.947 42.5938 111.825 42.5938ZM111.825 54.2743C109.592 54.2743 107.702 52.3848 107.702 49.8083C107.702 47.2317 109.592 45.3422 111.825 45.3422C114.058 45.3422 115.947 47.0599 115.947 49.8083C115.947 52.3848 114.058 54.2743 111.825 54.2743ZM92.7579 44.8269V47.9188H100.144C99.9723 49.6365 99.2852 51.0107 98.4264 51.8695C97.3957 52.9002 95.678 54.1026 92.7579 54.1026C88.12 54.1026 84.6846 50.4953 84.6846 45.8575C84.6846 41.2196 88.2918 37.6124 92.7579 37.6124C95.1627 37.6124 97.0522 38.643 98.4264 39.8455L100.659 37.6124C98.7699 35.8947 96.3651 34.5205 92.9297 34.5205C86.7458 34.5205 81.4209 39.6737 81.4209 45.8575C81.4209 52.0413 86.7458 57.1945 92.9297 57.1945C96.3651 57.1945 98.7699 56.1638 100.831 53.9308C102.892 51.8695 103.58 48.9494 103.58 46.7164C103.58 46.0293 103.58 45.3422 103.408 44.8269H92.7579ZM170.743 47.2317C170.055 45.5139 168.338 42.5938 164.559 42.5938C160.78 42.5938 157.688 45.5139 157.688 49.98C157.688 54.1026 160.78 57.3662 164.902 57.3662C168.166 57.3662 170.227 55.305 170.914 54.1026L168.51 52.3848C167.651 53.5872 166.62 54.4461 164.902 54.4461C163.185 54.4461 162.154 53.759 161.295 52.2131L171.086 48.0905L170.743 47.2317ZM160.78 49.6365C160.78 46.8881 163.013 45.3422 164.559 45.3422C165.761 45.3422 166.964 46.0293 167.307 46.8881L160.78 49.6365ZM152.706 56.6791H155.97V35.2076H152.706V56.6791ZM147.553 44.1398C146.694 43.2809 145.32 42.422 143.603 42.422C139.995 42.422 136.56 45.6857 136.56 49.8083C136.56 53.9308 139.824 57.0227 143.603 57.0227C145.32 57.0227 146.694 56.1638 147.382 55.305H147.553V56.3356C147.553 59.084 146.007 60.6299 143.603 60.6299C141.713 60.6299 140.339 59.2557 139.995 58.0533L137.247 59.2557C138.106 61.1452 140.167 63.55 143.774 63.55C147.553 63.55 150.645 61.317 150.645 55.9921V42.9374H147.553V44.1398ZM143.774 54.2743C141.541 54.2743 139.652 52.3848 139.652 49.8083C139.652 47.2317 141.541 45.3422 143.774 45.3422C146.007 45.3422 147.725 47.2317 147.725 49.8083C147.725 52.3848 146.007 54.2743 143.774 54.2743ZM185.687 35.2076H177.957V56.6791H181.221V48.6058H185.687C189.294 48.6058 192.729 46.0293 192.729 41.9067C192.729 37.7842 189.294 35.2076 185.687 35.2076ZM185.859 45.5139H181.221V38.1277H185.859C188.263 38.1277 189.638 40.189 189.638 41.7349C189.466 43.6244 188.092 45.5139 185.859 45.5139ZM205.612 42.422C203.208 42.422 200.803 43.4527 199.944 45.6857L202.864 46.8881C203.551 45.6857 204.582 45.3422 205.784 45.3422C207.502 45.3422 209.048 46.3728 209.22 48.0905V48.2623C208.704 47.9188 207.33 47.4034 205.956 47.4034C202.864 47.4034 199.772 49.1212 199.772 52.2131C199.772 55.1332 202.349 57.0227 205.097 57.0227C207.33 57.0227 208.361 55.9921 209.22 54.9614H209.391V56.6791H212.483V48.4341C212.14 44.6551 209.22 42.422 205.612 42.422ZM205.269 54.2743C204.238 54.2743 202.692 53.759 202.692 52.3848C202.692 50.6671 204.582 50.1518 206.128 50.1518C207.502 50.1518 208.189 50.4953 209.048 50.8389C208.704 52.9002 206.987 54.2743 205.269 54.2743ZM223.305 42.9374L219.698 52.2131H219.526L215.747 42.9374H212.311L217.98 55.9921L214.716 63.2065H217.98L226.74 42.9374H223.305ZM194.447 56.6791H197.711V35.2076H194.447V56.6791Z" fill="white"/>
<path d="M28.6871 18.0312C28.1718 18.5466 28 19.4054 28 20.4361V58.3978C28 59.4284 28.3435 60.2873 28.8589 60.8026L29.0306 60.9744L50.3304 39.6746V39.331L28.6871 18.0312Z" fill="url(#paint1_linear_3955_3766)"/>
<path d="M57.2009 46.8887L50.1582 39.8461V39.3308L57.2009 32.2881L57.3726 32.4599L65.7895 37.2695C68.1943 38.6437 68.1943 40.8767 65.7895 42.2509L57.2009 46.8887Z" fill="url(#paint2_linear_3955_3766)"/>
<path d="M57.3735 46.7164L50.1591 39.502L28.6875 60.9735C29.5464 61.8324 30.7488 61.8324 32.2947 61.1453L57.3735 46.7164Z" fill="url(#paint3_linear_3955_3766)"/>
<path d="M57.3735 32.2876L32.2947 18.0305C30.7488 17.1716 29.5464 17.3434 28.6875 18.2023L50.1591 39.502L57.3735 32.2876Z" fill="url(#paint4_linear_3955_3766)"/>
<path opacity="0.2" d="M57.2017 46.5449L32.2947 60.6303C30.9205 61.4891 29.7181 61.3173 28.8593 60.6303L28.6875 60.802L28.8593 60.9738C29.7181 61.6609 30.9205 61.8327 32.2947 60.9738L57.2017 46.5449Z" fill="black"/>
<path opacity="0.12" d="M28.6871 60.63C28.1718 60.1146 28 59.2558 28 58.2251V58.3969C28 59.4276 28.3435 60.2864 28.8589 60.8017V60.63H28.6871ZM65.7899 41.735L57.2013 46.5446L57.3731 46.7164L65.7899 41.9068C66.9923 41.2197 67.5077 40.3608 67.5077 39.502C67.5077 40.3608 66.8206 41.0479 65.7899 41.735Z" fill="black"/>
<path opacity="0.25" d="M32.2943 18.2026L65.7899 37.2693C66.8206 37.9564 67.5077 38.6435 67.5077 39.5024C67.5077 38.6435 66.9923 37.7847 65.7899 37.0976L32.2943 18.0308C29.8895 16.6567 28 17.6873 28 20.4356V20.6074C28 18.0308 29.8895 16.8284 32.2943 18.2026Z" fill="white"/>
<defs>
<linearGradient id="paint0_linear_3955_3766" x1="127" y1="80" x2="127" y2="0" gradientUnits="userSpaceOnUse">
<stop/>
<stop offset="1" stop-color="#292929"/>
</linearGradient>
<linearGradient id="paint1_linear_3955_3766" x1="48.2691" y1="20.1097" x2="19.4406" y2="48.9365" gradientUnits="userSpaceOnUse">
<stop stop-color="#00A0FF"/>
<stop offset="0.007" stop-color="#00A1FF"/>
<stop offset="0.26" stop-color="#00BEFF"/>
<stop offset="0.512" stop-color="#00D2FF"/>
<stop offset="0.76" stop-color="#00DFFF"/>
<stop offset="1" stop-color="#00E3FF"/>
</linearGradient>
<linearGradient id="paint2_linear_3955_3766" x1="68.9398" y1="39.5042" x2="27.376" y2="39.5042" gradientUnits="userSpaceOnUse">
<stop stop-color="#FFE000"/>
<stop offset="0.409" stop-color="#FFBD00"/>
<stop offset="0.775" stop-color="#FFA500"/>
<stop offset="1" stop-color="#FF9C00"/>
</linearGradient>
<linearGradient id="paint3_linear_3955_3766" x1="53.4691" y1="43.4458" x2="14.3771" y2="82.5378" gradientUnits="userSpaceOnUse">
<stop stop-color="#FF3A44"/>
<stop offset="1" stop-color="#C31162"/>
</linearGradient>
<linearGradient id="paint4_linear_3955_3766" x1="23.3574" y1="5.44987" x2="40.8146" y2="22.9071" gradientUnits="userSpaceOnUse">
<stop stop-color="#32A071"/>
<stop offset="0.069" stop-color="#2DA771"/>
<stop offset="0.476" stop-color="#15CF74"/>
<stop offset="0.801" stop-color="#06E775"/>
<stop offset="1" stop-color="#00F076"/>
</linearGradient>
</defs>
</svg>
