<svg width="20" height="20" viewBox="0 0 20 20" fill="none" xmlns="http://www.w3.org/2000/svg">
<path d="M9.99999 1.81798C5.87995 1.81798 2.72735 4.76527 2.72735 8.18209V10.4543C2.72735 11.2077 2.11625 11.818 1.36367 11.818C0.61025 11.818 0 11.2077 0 10.4543V7.72695C0 7.05449 0.486668 6.49624 1.12674 6.38374C2.04381 2.67106 5.7436 0 10 0C14.2564 0 17.9562 2.67106 18.8733 6.38374C19.5133 6.49624 20 7.05449 20 7.72695V10.4543C20 11.0645 19.6003 11.581 19.048 11.7549C18.7557 14.6049 16.9999 17.0213 14.5453 18.241V18.1822C14.5453 17.5429 14.3808 16.9429 14.0918 16.4213C15.9933 15.321 17.2726 13.2644 17.2726 10.9095V8.1821C17.2726 4.76528 14.12 1.81798 9.99999 1.81798Z" fill="#919191"/>
<path d="M12.7281 18.1812C12.7281 17.1772 11.9142 16.3633 10.9102 16.3633H9.09138C8.08737 16.3633 7.27344 17.1772 7.27344 18.1812C7.27344 19.1852 8.08739 19.9992 9.09138 19.9992H10.9102C11.9142 19.9992 12.7281 19.1852 12.7281 18.1812Z" fill="#919191"/>
<path fill-rule="evenodd" clip-rule="evenodd" d="M10.0008 2.72656C6.48603 2.72656 3.63672 5.57588 3.63672 9.08979C3.63672 12.6046 6.48603 15.4539 10.0008 15.4539C13.5156 15.4539 16.3649 12.6046 16.3649 9.08979C16.3649 5.57588 13.5156 2.72656 10.0008 2.72656ZM7.2198 10.249C7.58374 9.903 8.15903 9.91834 8.50506 10.2823C8.86387 10.6607 9.39485 10.9087 10.0008 10.9087C10.6068 10.9087 11.1378 10.6607 11.4966 10.2823C11.8427 9.91833 12.418 9.90299 12.7819 10.249C13.1467 10.5942 13.1612 11.1704 12.816 11.5343C12.1154 12.2724 11.108 12.7266 10.0009 12.7266C8.89386 12.7266 7.88637 12.2724 7.18586 11.5343C6.84069 11.1703 6.85502 10.5942 7.2198 10.249Z" fill="#919191"/>
</svg>
