<svg width="140" height="40" viewBox="0 0 140 40" fill="none" xmlns="http://www.w3.org/2000/svg">
<path d="M0 20C0 8.95431 8.95431 0 20 0H120C131.046 0 140 8.95431 140 20C140 31.0457 131.046 40 120 40H20C8.9543 40 0 31.0457 0 20Z" fill="url(#paint0_linear_3948_3145)"/>
<path d="M0.5 20C0.5 9.23045 9.23045 0.5 20 0.5H120C130.77 0.5 139.5 9.23045 139.5 20C139.5 30.7696 130.77 39.5 120 39.5H20C9.23045 39.5 0.5 30.7696 0.5 20Z" stroke="url(#paint1_linear_3948_3145)" stroke-opacity="0.3"/>
<defs>
<linearGradient id="paint0_linear_3948_3145" x1="70" y1="0" x2="70" y2="40" gradientUnits="userSpaceOnUse">
<stop stop-color="#2E2940"/>
<stop offset="1" stop-color="#1F1B2C"/>
</linearGradient>
<linearGradient id="paint1_linear_3948_3145" x1="70" y1="0" x2="70" y2="40" gradientUnits="userSpaceOnUse">
<stop stop-color="#78E7FF"/>
<stop offset="1" stop-color="#488B99" stop-opacity="0.2"/>
</linearGradient>
</defs>
</svg>
