<svg width="93" height="76" viewBox="0 0 93 76" fill="none" xmlns="http://www.w3.org/2000/svg">
<path fill-rule="evenodd" clip-rule="evenodd" d="M4.58332 21.5348H23.8843V4.8398C23.8843 2.1757 26.0562 0 28.7241 0H87.7401C90.4042 0 92.5799 2.1719 92.5799 4.8398V43.5388C92.5799 46.2029 90.408 48.3786 87.7401 48.3786H38.5061V71.0816C38.5061 73.3746 36.635 75.2457 34.342 75.2457H4.58402C2.28712 75.2457 0.419922 73.3785 0.419922 71.0816V25.6986C0.419922 23.4056 2.28642 21.5348 4.58332 21.5348ZM38.5053 35.8118H88.7353V4.8428C88.7353 4.29592 88.2822 3.8428 87.7353 3.8428H28.7233C28.1765 3.8428 27.7233 4.29592 27.7233 4.8428V21.5378H34.3405C36.6374 21.5378 38.5046 23.4089 38.5046 25.7019L38.5053 35.8118ZM88.7353 39.6516H38.5053V44.5383H87.7393C88.2862 44.5383 88.7393 44.0852 88.7393 43.5383L88.7353 39.6516ZM47.8333 57.7566H68.6263C71.1536 57.7566 71.1536 53.9168 68.6263 53.9168L47.8333 53.9129C45.306 53.9129 45.306 57.7566 47.8333 57.7566ZM15.9703 68.5536H22.9508C25.4781 68.5536 25.4781 64.7138 22.9508 64.7138H15.9703C13.443 64.7138 13.443 68.5536 15.9703 68.5536ZM34.3413 25.3736L4.35332 25.4713C4.29473 25.5298 4.25567 25.6119 4.25567 25.6978V71.0808L4.57989 71.405H34.3379L34.6621 71.0808L34.666 25.6978L34.3413 25.3736Z" fill="#919191"/>
</svg>
