<svg width="20" height="20" viewBox="0 0 20 20" fill="none" xmlns="http://www.w3.org/2000/svg">
<path fill-rule="evenodd" clip-rule="evenodd" d="M12.6398 6.41755C13.2604 5.79689 14.2032 6.7396 13.5825 7.36026L10.9427 10L13.5825 12.6398C14.2032 13.2605 13.2604 14.2032 12.6398 13.5825L10 10.9428L7.36022 13.5825C6.73956 14.2032 5.79684 13.2605 6.41751 12.6398L9.05729 10L6.41751 7.36026C5.79684 6.7396 6.73956 5.79689 7.36022 6.41755L10 9.05733L12.6398 6.41755ZM6.11111 0C5.94011 0 5.76996 0.0651044 5.63976 0.195313L0.195313 5.63976C0.0746533 5.76042 0 5.92709 0 6.11111V13.8889C0 14.0599 0.0651044 14.23 0.195313 14.3602L5.63976 19.8047C5.76042 19.9253 5.92709 20 6.11111 20H13.8889C14.0599 20 14.23 19.9349 14.3602 19.8047L19.8047 14.3602C19.9253 14.2396 20 14.0729 20 13.8889V6.11111C20 5.94011 19.9349 5.76996 19.8047 5.63976L14.3602 0.195313C14.2396 0.0746533 14.0729 0 13.8889 0H6.11111ZM13.6129 1.33333H6.38711L1.33334 6.38711V13.6129L6.38711 18.6667H13.6129L18.6667 13.6129V6.38711L13.6129 1.33333Z" fill="#F34D42"/>
</svg>
