<svg width="17" height="18" viewBox="0 0 17 18" fill="none" xmlns="http://www.w3.org/2000/svg">
<path fill-rule="evenodd" clip-rule="evenodd" d="M1.82334 2.7C1.82334 1.20884 3.03218 0 4.52334 0H13.5233C15.0146 0 16.2233 1.20884 16.2233 2.7V15.3C16.2233 16.7912 15.0146 18 13.5233 18H4.52334C3.03218 18 1.82334 16.7912 1.82334 15.3C1.82334 14.8029 2.22629 14.4 2.72334 14.4C3.22039 14.4 3.62334 14.8029 3.62334 15.3C3.62334 15.7971 4.02629 16.2 4.52334 16.2H13.5233C14.0204 16.2 14.4233 15.7971 14.4233 15.3V2.7C14.4233 2.20295 14.0204 1.8 13.5233 1.8H4.52334C4.02629 1.8 3.62334 2.20295 3.62334 2.7C3.62334 3.19705 3.22039 3.6 2.72334 3.6C2.22629 3.6 1.82334 3.19705 1.82334 2.7ZM6.05974 4.7636C6.41121 5.11508 6.41121 5.68492 6.05974 6.0364L3.99613 8.1H11.7233C12.2204 8.1 12.6233 8.50293 12.6233 9C12.6233 9.49707 12.2204 9.9 11.7233 9.9H3.99613L6.05974 11.9636C6.41121 12.3151 6.41121 12.8849 6.05974 13.2364C5.70826 13.5878 5.13842 13.5878 4.78694 13.2364L1.18694 9.63639C0.835473 9.28494 0.835473 8.71506 1.18694 8.36361L4.78694 4.7636C5.13842 4.41213 5.70826 4.41213 6.05974 4.7636Z" fill="#F34D42"/>
</svg>
