<svg width="40" height="12" viewBox="0 0 40 12" fill="none" xmlns="http://www.w3.org/2000/svg">
<path d="M10.9457 4.94661H8.54333L10.2417 3.24819C10.6535 2.8364 10.6535 2.16829 10.2417 1.75825C9.82995 1.34646 9.16359 1.34646 8.75181 1.75655L7.05339 3.45496V1.05427C7.05339 0.471626 6.58181 0 5.99912 0C5.41819 0 4.9466 0.471582 4.9466 1.05427V3.45666L3.24649 1.75655C2.8364 1.34647 2.16833 1.34647 1.75655 1.75825C1.34647 2.16834 1.34647 2.83641 1.75655 3.24819L3.45496 4.94661H1.05427C0.471626 4.94661 0 5.41819 0 5.99913C0 6.58177 0.471582 7.05339 1.05427 7.05339H3.45667L1.75655 8.75181C1.34647 9.1636 1.34647 9.82996 1.75655 10.2417C2.16834 10.6535 2.83645 10.6535 3.24649 10.2417L4.9449 8.54333L4.94661 10.9457C4.94661 11.5284 5.41819 12 5.99913 12C6.58177 12 7.0534 11.5284 7.0534 10.9457V8.54333L8.75181 10.2417C9.1636 10.6535 9.82996 10.6535 10.2417 10.2417C10.6535 9.82996 10.6535 9.1636 10.2417 8.75181L8.54333 7.05339H10.9457C11.5284 7.05339 12 6.58181 12 5.99913C12 5.41819 11.5284 4.94661 10.9457 4.94661Z" fill="white"/>
<path d="M24.9457 4.94661H22.5433L24.2417 3.24819C24.6535 2.8364 24.6535 2.16829 24.2417 1.75825C23.83 1.34646 23.1636 1.34646 22.7518 1.75655L21.0534 3.45496V1.05427C21.0534 0.471626 20.5818 0 19.9991 0C19.4182 0 18.9466 0.471582 18.9466 1.05427V3.45666L17.2465 1.75655C16.8364 1.34647 16.1683 1.34647 15.7565 1.75825C15.3465 2.16834 15.3465 2.83641 15.7565 3.24819L17.455 4.94661H15.0543C14.4716 4.94661 14 5.41819 14 5.99913C14 6.58177 14.4716 7.05339 15.0543 7.05339H17.4567L15.7565 8.75181C15.3465 9.1636 15.3465 9.82996 15.7565 10.2417C16.1683 10.6535 16.8364 10.6535 17.2465 10.2417L18.9449 8.54333L18.9466 10.9457C18.9466 11.5284 19.4182 12 19.9991 12C20.5818 12 21.0534 11.5284 21.0534 10.9457V8.54333L22.7518 10.2417C23.1636 10.6535 23.83 10.6535 24.2417 10.2417C24.6535 9.82996 24.6535 9.1636 24.2417 8.75181L22.5433 7.05339H24.9457C25.5284 7.05339 26 6.58181 26 5.99913C26 5.41819 25.5284 4.94661 24.9457 4.94661Z" fill="white"/>
<path d="M38.9457 4.94661H36.5433L38.2417 3.24819C38.6535 2.8364 38.6535 2.16829 38.2417 1.75825C37.83 1.34646 37.1636 1.34646 36.7518 1.75655L35.0534 3.45496V1.05427C35.0534 0.471626 34.5818 0 33.9991 0C33.4182 0 32.9466 0.471582 32.9466 1.05427V3.45666L31.2465 1.75655C30.8364 1.34647 30.1683 1.34647 29.7565 1.75825C29.3465 2.16834 29.3465 2.83641 29.7565 3.24819L31.455 4.94661H29.0543C28.4716 4.94661 28 5.41819 28 5.99913C28 6.58177 28.4716 7.05339 29.0543 7.05339H31.4567L29.7565 8.75181C29.3465 9.1636 29.3465 9.82996 29.7565 10.2417C30.1683 10.6535 30.8364 10.6535 31.2465 10.2417L32.9449 8.54333L32.9466 10.9457C32.9466 11.5284 33.4182 12 33.9991 12C34.5818 12 35.0534 11.5284 35.0534 10.9457V8.54333L36.7518 10.2417C37.1636 10.6535 37.83 10.6535 38.2417 10.2417C38.6535 9.82996 38.6535 9.1636 38.2417 8.75181L36.5433 7.05339H38.9457C39.5284 7.05339 40 6.58181 40 5.99913C40 5.41819 39.5284 4.94661 38.9457 4.94661Z" fill="white"/>
</svg>
