<svg width="30" height="30" viewBox="0 0 30 30" fill="none" xmlns="http://www.w3.org/2000/svg">
<path d="M24.7544 23.0246V15.2947C24.7544 14.7569 24.6447 14.2248 24.4319 13.7309C24.2191 13.237 23.9077 12.7917 23.5168 12.4224L16.2343 5.53997C15.8675 5.19321 15.3819 5 14.8772 5C14.3724 5 13.8868 5.19321 13.5201 5.53997L6.23761 12.4224C5.8467 12.7917 5.5353 13.237 5.32249 13.7309C5.10968 14.2248 4.99994 14.7569 5 15.2947V23.0246C5 23.5485 5.20813 24.0509 5.57859 24.4214C5.94906 24.7919 6.45152 25 6.97544 25H22.7789C23.3028 25 23.8053 24.7919 24.1758 24.4214C24.5462 24.0509 24.7544 23.5485 24.7544 23.0246Z" stroke="white" stroke-width="2" stroke-linecap="round" stroke-linejoin="round"/>
</svg>
