<svg width="30" height="30" viewBox="0 0 30 30" fill="none" xmlns="http://www.w3.org/2000/svg">
<path d="M4 8.25C4 7.65326 4.23178 7.08097 4.64436 6.65901C5.05695 6.23705 5.61652 6 6.2 6H23.8C24.3835 6 24.9431 6.23705 25.3556 6.65901C25.7682 7.08097 26 7.65326 26 8.25V21.75C26 22.3467 25.7682 22.919 25.3556 23.341C24.9431 23.7629 24.3835 24 23.8 24H6.2C5.61652 24 5.05695 23.7629 4.64436 23.341C4.23178 22.919 4 22.3467 4 21.75V8.25Z" stroke="#919191" stroke-width="2" stroke-linecap="round" stroke-linejoin="round"/>
<path d="M4 10L12.2511 16.1077C13.0313 16.6853 14.0008 17 15 17C15.9992 17 16.9687 16.6853 17.7489 16.1077L26 10" stroke="#919191" stroke-width="2" stroke-linecap="round" stroke-linejoin="round"/>
</svg>
