<svg width="26" height="20" viewBox="0 0 26 20" fill="none" xmlns="http://www.w3.org/2000/svg">
<path d="M25.1797 1.74647C24.8448 5.25734 23.3788 13.7837 22.6368 17.7155C22.32 19.3814 21.7047 19.9367 21.1074 19.9904C19.8043 20.1069 18.8179 19.1396 17.551 18.3156C15.5782 17.0348 14.4561 16.2377 12.5467 14.9839C10.3296 13.5419 11.7684 12.7448 13.0263 11.4461C13.3611 11.1058 19.0984 5.93801 19.207 5.47229C19.2251 5.40959 19.2342 5.19464 19.0984 5.07821C18.9627 4.96178 18.7727 5.00656 18.6369 5.03343C18.4378 5.07523 15.2826 7.13816 9.17125 11.2222C8.27838 11.8312 7.46695 12.1268 6.73696 12.1089C5.93156 12.091 4.39316 11.6611 3.24389 11.2939C1.84123 10.8461 0.719105 10.6042 0.818648 9.834C0.866912 9.43395 1.42496 9.02495 2.49279 8.60699C9.03249 5.78874 13.3943 3.92882 15.5782 3.02722C21.8133 0.465727 23.1073 0.0179126 23.9489 0C24.139 0 24.5462 0.0447822 24.8177 0.259733C24.9949 0.413904 25.1078 0.6278 25.1344 0.859804C25.1833 1.15271 25.1985 1.45018 25.1797 1.74647Z" fill="white"/>
</svg>
