<svg width="20" height="20" viewBox="0 0 20 20" fill="none" xmlns="http://www.w3.org/2000/svg">
<path d="M19.2224 17.485C18.9569 18.7113 17.914 19.6214 16.6534 19.7274C14.7367 19.8846 12.4972 19.9992 9.99613 19.9992C7.49508 19.9992 5.25538 19.8856 3.33889 19.7274C2.07829 19.6214 1.0354 18.7113 0.769872 17.485C0.609431 16.7691 0.5273 16.0371 0.525391 15.3032V15.2549C0.539716 13.7843 1.68382 12.5664 3.1631 12.45C5.11896 12.2853 7.41953 12.1641 10.0086 12.1641C11.9205 12.1641 14.2354 12.2294 16.8321 12.45C18.3114 12.5684 19.4563 13.7853 19.4727 15.2578V15.3061C19.468 16.039 19.3847 16.77 19.2224 17.485Z" fill="#01B9E1"/>
<path d="M15.0419 5.00386C15.0419 7.76701 12.7824 10.0077 9.99557 10.0077C7.20877 10.0077 4.94922 7.7672 4.94922 5.00386C4.94922 2.24053 7.20877 0 9.99557 0C12.7824 0 15.0419 2.24053 15.0419 5.00386Z" fill="#01B9E1"/>
</svg>
