<svg width="15" height="19" viewBox="0 0 15 19" fill="none" xmlns="http://www.w3.org/2000/svg">
<path fill-rule="evenodd" clip-rule="evenodd" d="M7.34675 0.433467L0.486756 2.57285C0.267167 2.64134 0.117188 2.84804 0.117188 3.08222V9.15319C0.117188 13.4354 3.02251 17.2186 7.34675 18.5672C7.39654 18.5827 7.44804 18.5905 7.49951 18.5905C7.55101 18.5905 7.60252 18.5827 7.65228 18.5672C11.9765 17.2186 14.8818 13.4354 14.8818 9.15319V3.28944C14.8818 3.06059 14.7384 2.85731 14.5256 2.78448L7.66565 0.437835C7.5624 0.402504 7.45093 0.400942 7.34675 0.433467ZM13.9453 3.57579L7.49344 1.36877L1.05375 3.37707V9.15319C1.05375 12.9532 3.60642 16.3636 7.49951 17.6329C11.3926 16.3636 13.9453 12.9532 13.9453 9.15319V3.57579ZM7.34696 0.434167L7.34697 0.434169L7.34696 0.434167Z" fill="#919191"/>
<path d="M9.50834 4.55264C9.23092 4.27522 8.90759 4.06087 8.54691 3.91347C8.19869 3.77232 7.83104 3.70046 7.45408 3.70026C7.07713 3.70006 6.70955 3.77151 6.36149 3.9123C6.00096 4.05774 5.67786 4.27331 5.40074 4.55043C5.12363 4.82754 4.90962 5.15065 4.76261 5.51117C4.62184 5.85923 4.55038 6.22681 4.55058 6.60377C4.55078 6.98073 4.62263 7.34838 4.76379 7.69659C4.90963 8.05727 5.12554 8.38061 5.40295 8.65802C5.74972 9.00479 6.17666 9.25737 6.64482 9.39392L6.64513 14.3092C6.64519 14.4229 6.71378 14.5273 6.83063 14.5741C6.85478 14.5842 6.88204 14.5881 6.90852 14.5881L8.0098 14.5887C8.03628 14.5887 8.06276 14.5841 8.08768 14.5747C8.20448 14.5281 8.27374 14.4245 8.27289 14.31L8.27253 13.6293L9.25231 13.6299C9.27879 13.6299 9.30526 13.6252 9.33017 13.6159C9.44698 13.5692 9.51625 13.4657 9.5154 13.3512L9.51481 12.2655C9.5148 12.239 9.51011 12.2125 9.50076 12.1876C9.45396 12.0707 9.35033 12.0014 9.23585 12.0021L8.27165 12.0016L8.26947 9.39635C8.7367 9.26109 9.16415 9.0082 9.51054 8.6618C9.78766 8.38468 10.0017 8.06158 10.1487 7.70106C10.2894 7.353 10.3609 6.98542 10.3607 6.60846C10.3605 6.23152 10.2887 5.86387 10.1475 5.51563C10.0001 5.15339 9.78576 4.83005 9.50834 4.55264ZM8.89573 6.60688C8.89594 6.99162 8.74581 7.35371 8.47415 7.62537C8.20248 7.89704 7.84039 8.04717 7.45565 8.04695C7.07091 8.04675 6.70789 7.89701 6.43593 7.62505C6.16319 7.35231 6.01345 6.99085 6.01325 6.6061C6.01304 6.22136 6.16317 5.85927 6.43483 5.58761C6.7065 5.31594 7.06858 5.16582 7.45332 5.16603C7.83807 5.16623 8.20031 5.31675 8.47227 5.58871C8.74578 5.85912 8.89629 6.22136 8.89573 6.60688Z" fill="#919191"/>
</svg>
