<svg width="20" height="20" viewBox="0 0 20 20" fill="none" xmlns="http://www.w3.org/2000/svg">
<g clip-path="url(#clip0_3885_2232)">
<path d="M10 20C15.5228 20 20 15.5228 20 10C20 4.47715 15.5228 0 10 0C4.47715 0 0 4.47715 0 10C0 15.5228 4.47715 20 10 20Z" fill="#F0F0F0"/>
<path d="M2.0684 3.91211C1.28289 4.9341 0.690586 6.11203 0.345703 7.39168H5.54797L2.0684 3.91211Z" fill="#0052B4"/>
<path d="M19.6573 7.39164C19.3124 6.11203 18.72 4.9341 17.9346 3.91211L14.4551 7.39164H19.6573Z" fill="#0052B4"/>
<path d="M0.345703 12.6094C0.690625 13.889 1.28293 15.0669 2.0684 16.0889L5.54785 12.6094H0.345703Z" fill="#0052B4"/>
<path d="M16.0889 2.06844C15.0669 1.28293 13.889 0.690625 12.6094 0.345703V5.54793L16.0889 2.06844Z" fill="#0052B4"/>
<path d="M3.91211 17.9345C4.9341 18.72 6.11203 19.3123 7.39164 19.6573V14.4551L3.91211 17.9345Z" fill="#0052B4"/>
<path d="M7.3916 0.345703C6.11199 0.690625 4.93406 1.28293 3.91211 2.0684L7.3916 5.54789V0.345703Z" fill="#0052B4"/>
<path d="M12.6094 19.6573C13.889 19.3123 15.0669 18.72 16.0889 17.9346L12.6094 14.4551V19.6573Z" fill="#0052B4"/>
<path d="M14.4551 12.6094L17.9346 16.0889C18.72 15.067 19.3124 13.889 19.6573 12.6094H14.4551Z" fill="#0052B4"/>
<path d="M19.9154 8.69566H11.3044H11.3044V0.0846484C10.8774 0.0290625 10.4421 0 10 0C9.55785 0 9.12262 0.0290625 8.69566 0.0846484V8.69559V8.69563H0.0846484C0.0290625 9.12262 0 9.55793 0 10C0 10.4421 0.0290625 10.8774 0.0846484 11.3043H8.69559H8.69563V19.9154C9.12262 19.9709 9.55785 20 10 20C10.4421 20 10.8774 19.971 11.3043 19.9154V11.3044V11.3044H19.9154C19.9709 10.8774 20 10.4421 20 10C20 9.55793 19.9709 9.12262 19.9154 8.69566V8.69566Z" fill="#D80027"/>
<path d="M12.6074 12.6075L17.0698 17.0698C17.275 16.8646 17.4708 16.6502 17.6576 16.4278L13.8372 12.6074H12.6074V12.6075Z" fill="#D80027"/>
<path d="M7.39012 12.6074H7.39004L2.92773 17.0697C3.13289 17.275 3.34738 17.4707 3.56973 17.6575L7.39012 13.8371V12.6074Z" fill="#D80027"/>
<path d="M7.39195 7.3902V7.39012L2.92961 2.92773C2.72438 3.13289 2.52859 3.34738 2.3418 3.56973L6.16223 7.39016H7.39195V7.3902Z" fill="#D80027"/>
<path d="M12.6074 7.39199L17.0698 2.92957C16.8646 2.72434 16.6502 2.52855 16.4278 2.3418L12.6074 6.16223V7.39199Z" fill="#D80027"/>
</g>
<defs>
<clipPath id="clip0_3885_2232">
<rect width="20" height="20" fill="white"/>
</clipPath>
</defs>
</svg>
