<svg width="20" height="20" viewBox="0 0 20 20" fill="none" xmlns="http://www.w3.org/2000/svg">
<g clip-path="url(#clip0_3885_2240)">
<path d="M0 10.0002C0 11.2234 0.220039 12.3951 0.621992 13.4784L10 14.348L19.378 13.4784C19.78 12.3951 20 11.2234 20 10.0002C20 8.77695 19.78 7.60523 19.378 6.52191L10 5.65234L0.621992 6.52191C0.220039 7.60523 0 8.77695 0 10.0002H0Z" fill="#FFDA44"/>
<path d="M19.3791 6.52176C17.9661 2.71379 14.3007 0 10.0011 0C5.70141 0 2.03598 2.71379 0.623047 6.52176H19.3791Z" fill="#D80027"/>
<path d="M0.623047 13.4785C2.03598 17.2865 5.70141 20.0003 10.0011 20.0003C14.3007 20.0003 17.9661 17.2865 19.3791 13.4785H0.623047Z" fill="#D80027"/>
</g>
<defs>
<clipPath id="clip0_3885_2240">
<rect width="20" height="20" fill="white"/>
</clipPath>
</defs>
</svg>
