<svg width="20" height="20" viewBox="0 0 20 20" fill="none" xmlns="http://www.w3.org/2000/svg">
<g clip-path="url(#clip0_3885_2256)">
<path d="M0 9.9991C0 14.2987 2.71375 17.9641 6.52168 19.3771L7.39129 9.99906L6.52168 0.621094C2.71375 2.03406 0 5.69945 0 9.9991Z" fill="#6DA544"/>
<path d="M19.9998 10C19.9998 4.47719 15.5226 0 9.99981 0C8.7766 0 7.60484 0.220039 6.52148 0.621992V19.378C7.60484 19.78 8.7766 20 9.99981 20C15.5226 20 19.9998 15.5228 19.9998 10Z" fill="#D80027"/>
<path d="M6.52121 13.478C8.44219 13.478 9.99945 11.9207 9.99945 9.99973C9.99945 8.07875 8.44219 6.52148 6.52121 6.52148C4.60023 6.52148 3.04297 8.07875 3.04297 9.99973C3.04297 11.9207 4.60023 13.478 6.52121 13.478Z" fill="#FFDA44"/>
<path d="M4.56445 8.25977V10.4337C4.56445 11.5142 5.44039 12.3902 6.52098 12.3902C7.60156 12.3902 8.4775 11.5143 8.4775 10.4337V8.25977H4.56445Z" fill="#D80027"/>
<path d="M6.52328 11.0862C6.16367 11.0862 5.87109 10.7936 5.87109 10.434V9.56445H7.17543V10.434C7.17543 10.7936 6.88285 11.0862 6.52328 11.0862Z" fill="#F0F0F0"/>
</g>
<defs>
<clipPath id="clip0_3885_2256">
<rect width="20" height="20" fill="white"/>
</clipPath>
</defs>
</svg>
