<svg width="20" height="20" viewBox="0 0 20 20" fill="none" xmlns="http://www.w3.org/2000/svg">
<g clip-path="url(#clip0_3885_2260)">
<path d="M10 20C15.5228 20 20 15.5228 20 10C20 4.47715 15.5228 0 10 0C4.47715 0 0 4.47715 0 10C0 15.5228 4.47715 20 10 20Z" fill="#D80027"/>
<path d="M9.59141 8.16992L10.4119 9.30059L11.7407 8.86973L10.9189 9.99941L11.7393 11.13L10.411 10.6975L9.58922 11.8272L9.59008 10.4303L8.26172 9.99781L9.59055 9.56695L9.59141 8.16992Z" fill="#F0F0F0"/>
<path d="M7.3523 12.8259C5.79152 12.8259 4.52621 11.5605 4.52621 9.99977C4.52621 8.43898 5.79152 7.17367 7.3523 7.17367C7.83895 7.17367 8.29684 7.29676 8.6966 7.51336C8.06945 6.9 7.21176 6.52148 6.26535 6.52148C4.34434 6.52148 2.78711 8.07875 2.78711 9.99973C2.78711 11.9207 4.34438 13.478 6.26535 13.478C7.21184 13.478 8.06949 13.0994 8.6966 12.4861C8.29684 12.7028 7.83895 12.8259 7.3523 12.8259V12.8259Z" fill="#F0F0F0"/>
</g>
<defs>
<clipPath id="clip0_3885_2260">
<rect width="20" height="20" fill="white"/>
</clipPath>
</defs>
</svg>
